<?xml version="1.0" encoding="UTF-8"?>
<svg width="700pt" height="700pt" version="1.1" viewBox="0 0 700 700" xmlns="http://www.w3.org/2000/svg">
 <path d="m450.29 73.43c-4.1992 4.2188-10.535 5.4766-16.047 3.1836-5.5117-2.2734-9.1016-7.6484-9.1016-13.613v-0.10547c0-12.039-4.7773-23.59-13.301-32.094-8.5039-8.5234-20.055-13.301-32.094-13.301h-59.5c-12.039 0-23.59 4.7773-32.094 13.301-8.5234 8.5039-13.301 20.055-13.301 32.094v0.10547c0 5.9688-3.5859 11.34-9.1016 13.613-5.5117 2.293-11.848 1.0312-16.047-3.1836-0.015625 0-0.085937-0.085938-0.085937-0.085938-8.5039-8.5039-20.055-13.301-32.094-13.301-12.039 0-23.59 4.7969-32.094 13.301-12.773 12.758-29.328 29.312-42.086 42.086-8.5039 8.5039-13.301 20.055-13.301 32.094 0 12.039 4.7969 23.59 13.301 32.094l0.085938 0.070312c4.2188 4.2188 5.4766 10.551 3.1836 16.066-2.2734 5.5117-7.6484 9.1016-13.613 9.1016h-0.10547c-12.039 0-23.59 4.7773-32.094 13.301-8.5234 8.5039-13.301 20.055-13.301 32.094v59.5c0 12.039 4.7773 23.59 13.301 32.094 8.5039 8.5234 20.055 13.301 32.094 13.301h0.10547c5.9688 0 11.34 3.5859 13.613 9.1016 2.293 5.5117 1.0312 11.848-3.1836 16.047 0 0.015625-0.085938 0.085937-0.085938 0.085937-8.5039 8.5039-13.301 20.055-13.301 32.094 0 12.039 4.7969 23.59 13.301 32.094 12.758 12.773 29.312 29.328 42.086 42.086 8.5039 8.5039 20.055 13.301 32.094 13.301 12.039 0 23.59-4.7969 32.094-13.301 0 0 0.070312-0.085938 0.070312-0.085938 4.2188-4.2188 10.551-5.4766 16.066-3.1836 5.5117 2.2734 9.1016 7.6484 9.1016 13.613v0.10547c0 12.039 4.7773 23.59 13.301 32.094 8.5039 8.5234 20.055 13.301 32.094 13.301h59.5c12.039 0 23.59-4.7773 32.094-13.301 8.5234-8.5039 13.301-20.055 13.301-32.094v-0.10547c0-5.9688 3.5859-11.34 9.1016-13.613 5.5117-2.293 11.848-1.0312 16.047 3.1836 0.015625 0 0.085937 0.085938 0.085937 0.085938 8.5039 8.5039 20.055 13.301 32.094 13.301 12.039 0 23.59-4.7969 32.094-13.301 12.773-12.758 29.328-29.312 42.086-42.086 8.5039-8.5039 13.301-20.055 13.301-32.094 0-12.039-4.7969-23.59-13.301-32.094l-0.085938-0.070312c-4.2188-4.2188-5.4766-10.551-3.1836-16.066 2.2734-5.5117 7.6484-9.1016 13.613-9.1016h0.10547c12.039 0 23.59-4.7773 32.094-13.301 8.5234-8.5039 13.301-20.055 13.301-32.094v-59.5c0-12.039-4.7773-23.59-13.301-32.094-8.5039-8.5234-20.055-13.301-32.094-13.301h-0.10547c-5.9688 0-11.34-3.5859-13.613-9.1016-2.293-5.5117-1.0312-11.848 3.1836-16.047 0-0.015625 0.085938-0.085937 0.085938-0.085937 8.5039-8.5039 13.301-20.055 13.301-32.094 0-12.039-4.7969-23.59-13.301-32.094-12.758-12.773-29.312-29.328-42.086-42.086-8.5039-8.5039-20.055-13.301-32.094-13.301-12.039 0-23.59 4.7969-32.094 13.301l-0.085937 0.085938zm24.762 24.746 0.070312-0.085937c1.9609-1.9414 4.6016-3.0469 7.3516-3.0469 2.7656 0 5.4062 1.1016 7.3516 3.0469l42.086 42.086c1.9414 1.9414 3.0469 4.5859 3.0469 7.3516 0 2.7461-1.1016 5.3906-3.0469 7.3516l-0.085937 0.070313c-14.227 14.227-18.48 35.613-10.781 54.199 7.6992 18.586 25.828 30.711 45.953 30.711h0.10547c2.7656 0 5.4062 1.0859 7.3516 3.0469 1.9414 1.9414 3.0469 4.5859 3.0469 7.3516v59.5c0 2.7656-1.1016 5.4062-3.0469 7.3516-1.9414 1.9609-4.5859 3.0469-7.3516 3.0469h-0.10547c-20.125 0-38.254 12.129-45.953 30.711-7.6992 18.586-3.4492 39.969 10.781 54.199l0.085937 0.070313c1.9414 1.9609 3.0469 4.6016 3.0469 7.3516 0 2.7656-1.1016 5.4062-3.0469 7.3516l-42.086 42.086c-1.9414 1.9414-4.5859 3.0469-7.3516 3.0469-2.7461 0-5.3906-1.1016-7.3516-3.0469l-0.070312-0.085937c-14.227-14.227-35.613-18.48-54.199-10.781-18.586 7.6992-30.711 25.828-30.711 45.953v0.10547c0 2.7656-1.0859 5.4062-3.0469 7.3516-1.9414 1.9414-4.5859 3.0469-7.3516 3.0469h-59.5c-2.7656 0-5.4062-1.1016-7.3516-3.0469-1.9609-1.9414-3.0469-4.5859-3.0469-7.3516v-0.10547c0-20.125-12.129-38.254-30.711-45.953-18.586-7.6992-39.969-3.4492-54.199 10.781l-0.070312 0.085937c-1.9609 1.9414-4.6016 3.0469-7.3516 3.0469-2.7656 0-5.4062-1.1016-7.3516-3.0469l-42.086-42.086c-1.9414-1.9414-3.0469-4.5859-3.0469-7.3516 0-2.7461 1.1016-5.3906 3.0469-7.3516l0.085937-0.070313c14.227-14.227 18.48-35.613 10.781-54.199-7.6992-18.586-25.828-30.711-45.953-30.711h-0.10547c-2.7656 0-5.4062-1.0859-7.3516-3.0469-1.9414-1.9414-3.0469-4.5859-3.0469-7.3516v-59.5c0-2.7656 1.1016-5.4062 3.0469-7.3516 1.9414-1.9609 4.5859-3.0469 7.3516-3.0469h0.10547c20.125 0 38.254-12.129 45.953-30.711 7.6992-18.586 3.4492-39.969-10.781-54.199l-0.085937-0.070313c-1.9414-1.9609-3.0469-4.6016-3.0469-7.3516 0-2.7656 1.1016-5.4062 3.0469-7.3516l42.086-42.086c1.9414-1.9414 4.5859-3.0469 7.3516-3.0469 2.7461 0 5.3906 1.1016 7.3516 3.0469l0.070312 0.085937c14.227 14.227 35.613 18.48 54.199 10.781 18.586-7.6992 30.711-25.828 30.711-45.953v-0.10547c0-2.7656 1.0859-5.4062 3.0469-7.3516 1.9414-1.9414 4.5859-3.0469 7.3516-3.0469h59.5c2.7656 0 5.4062 1.1016 7.3516 3.0469 1.9609 1.9414 3.0469 4.5859 3.0469 7.3516v0.10547c0 20.125 12.129 38.254 30.711 45.953 18.586 7.6992 39.969 3.4492 54.199-10.781zm-125.05 59.324c-67.602 0-122.5 54.898-122.5 122.5s54.898 122.5 122.5 122.5 122.5-54.898 122.5-122.5-54.898-122.5-122.5-122.5zm0 35c48.301 0 87.5 39.199 87.5 87.5s-39.199 87.5-87.5 87.5-87.5-39.199-87.5-87.5 39.199-87.5 87.5-87.5z" fill-rule="evenodd"/>
</svg>
